<svg aria-hidden="true" style="position: absolute; width: 0; height: 0; overflow: hidden;" version="1.1" xmlns="http://www.w3.org/2000/svg" xmlns:xlink="http://www.w3.org/1999/xlink">
<defs>
<symbol id="plyr-muted" viewBox="0 0 32 32">
<path d="M14.1 21.4h-3.9q-0.967 0-1.617-0.667t-0.65-1.6v-6.267q0-0.933 0.65-1.6t1.617-0.667h3.9l4.767-4.733q1.067-1.1 2.467-0.5t1.4 2.1v17.067q0 1.5-1.4 2.1t-2.467-0.5l-4.767-4.733z"></path>
</symbol>
<symbol id="plyr-volume" viewBox="0 0 32 32">
<path d="M26.6 15.967q0-2.933-1.567-5.333t-4.2-3.633q-0.633-0.3-0.883-0.933t-0.017-1.3q0.233-0.7 0.9-1.017t1.3-0.050q3.633 1.633 5.8 4.933t2.167 7.333q0 4-2.167 7.3t-5.8 4.933q-0.633 0.3-1.3-0.033t-0.9-1.033q-0.233-0.667 0.017-1.3t0.883-0.933q2.633-1.233 4.2-3.633t1.567-5.3zM8.067 21.4h-3.9q-0.967 0-1.617-0.667t-0.65-1.6v-6.267q0-0.933 0.65-1.6t1.617-0.667h3.9l4.7-4.7q1.1-1.1 2.5-0.517t1.4 2.083v17.067q0 1.5-1.4 2.083t-2.5-0.517l-4.7-4.7zM23.3 16q0 1.5-0.683 2.817t-1.917 2.25q-0.467 0.267-0.917 0t-0.45-0.8v-8.567q0-0.567 0.45-0.8t0.917 0.033q1.233 0.933 1.917 2.25t0.683 2.817z"></path>
</symbol>
<symbol id="plyr-settings" viewBox="0 0 32 32">
<path d="M13.5 30.867q-1.067 0-1.833-0.667t-0.9-1.7l-0.333-2.333q-0.1-0.067-0.217-0.133t-0.217-0.133l-2.167 0.9q-0.967 0.4-1.967 0.083t-1.5-1.25l-2.5-4.467q-0.533-0.9-0.333-1.917t1.033-1.617l1.8-1.4q0-0.067 0.017-0.133t0.017-0.133-0.017-0.117-0.017-0.117l-1.767-1.333q-0.867-0.633-1.067-1.65t0.333-1.95l2.5-4.4q0.533-0.9 1.5-1.233t1.933 0.067l2.2 0.867q0.133-0.033 0.25-0.1t0.217-0.133l0.3-2.333q0.1-1.067 0.883-1.75t1.85-0.683h5q1.067 0 1.85 0.683t0.883 1.75l0.3 2.333 0.533 0.267 2.067-0.9q1-0.4 1.983-0.067t1.517 1.233l2.5 4.4q0.533 0.933 0.333 1.95t-1.067 1.65l-1.833 1.333v0.267q0 0.067-0.017 0.133t-0.017 0.133l1.833 1.333q0.867 0.6 1.067 1.617t-0.333 1.95l-2.533 4.467q-0.5 0.9-1.483 1.233t-1.983-0.067l-2.167-0.9q-0.1 0.033-0.2 0.117t-0.167 0.117l-0.333 2.367q-0.133 1.033-0.9 1.7t-1.833 0.667h-5zM15.933 21q2.1 0 3.567-1.467t1.467-3.567q0-2.067-1.467-3.55t-3.567-1.483-3.567 1.483-1.467 3.55q0 2.1 1.467 3.567t3.567 1.467z"></path>
</symbol>
<symbol id="plyr-rewind" viewBox="0 0 32 32">
<path d="M28.633 24.233l-9.567-6.367q-0.5-0.3-0.75-0.817t-0.25-1.050 0.25-1.050 0.75-0.817l9.567-6.367q0.3-0.2 0.6-0.283t0.633-0.083q0.9 0 1.583 0.633t0.683 1.633v12.667q0 1-0.683 1.633t-1.583 0.633q-0.333 0-0.633-0.083t-0.6-0.283zM12.233 24.233l-9.533-6.367q-0.533-0.3-0.767-0.817t-0.233-1.050 0.233-1.050 0.767-0.817l9.533-6.367q0.3-0.2 0.617-0.283t0.65-0.083q0.9 0 1.583 0.633t0.683 1.633v12.667q0 1-0.683 1.633t-1.583 0.633q-0.333 0-0.65-0.083t-0.617-0.283z"></path>
</symbol>
<symbol id="plyr-airplay" viewBox="0 0 32 32">
<path d="M10.267 29.533q-0.767 0-1.233-0.533t-0.467-1.2q0-0.3 0.117-0.6t0.417-0.567l5.267-5.3q0.367-0.367 0.783-0.517t0.85-0.15 0.85 0.15 0.75 0.517l5.3 5.3q0.267 0.267 0.383 0.567t0.117 0.6q0 0.667-0.467 1.2t-1.233 0.533h-11.433zM5.733 2.467h20.533q1.9 0 3.217 1.317t1.317 3.217v15.333q0 1.533-1.033 2.65t-2.533 1.117h0.1q-0.633 0-1.183-0.25t-0.983-0.683l-4.367-4.333q-0.967-0.967-2.2-1.483t-2.6-0.517-2.6 0.517-2.2 1.483l-4.367 4.333q-0.433 0.433-1.017 0.667t-1.183 0.233h0.067q-1.467 0-2.483-1.117t-1.017-2.617v-15.333q0-1.9 1.317-3.217t3.217-1.317z"></path>
</symbol>
<symbol id="plyr-enter-fullscreen" viewBox="0 0 32 32">
<path d="M6.967 25.033h2.233q0.97 0 1.618 0.648t0.648 1.583q0 0.969-0.648 1.619t-1.618 0.65h-4.467q-0.967 0-1.617-0.65t-0.65-1.617v-4.467q0-0.97 0.65-1.618t1.619-0.648q0.936 0 1.583 0.648t0.648 1.618v2.233zM25.033 25.033v-2.233q0-0.97 0.65-1.618t1.619-0.648q0.936 0 1.583 0.648t0.648 1.618v4.467q0 0.967-0.65 1.617t-1.617 0.65h-4.433q-0.97 0-1.618-0.65t-0.648-1.619q0-0.936 0.667-1.583t1.6-0.648h2.2zM6.967 6.967v2.2q0 0.97-0.648 1.618t-1.583 0.648q-0.969 0-1.619-0.667t-0.65-1.6v-4.433q0-0.967 0.65-1.617t1.617-0.65h4.467q0.97 0 1.618 0.648t0.648 1.583q0 0.969-0.648 1.619t-1.618 0.65h-2.233zM25.033 6.967h-2.2q-0.97 0-1.618-0.65t-0.648-1.619q0-0.936 0.667-1.583t1.6-0.648h4.433q0.967 0 1.617 0.65t0.65 1.617v4.433q0 0.97-0.648 1.618t-1.583 0.648q-0.969 0-1.619-0.667t-0.65-1.6v-2.2z"></path>
</symbol>
<symbol id="plyr-play" viewBox="0 0 32 32">
<path d="M9.167 23.733v-15.467q0-0.995 0.688-1.631t1.595-0.636q0.289 0 0.603 0.083t0.614 0.25l12.167 7.767q0.55 0.3 0.808 0.828t0.258 1.072-0.267 1.072-0.8 0.828l-12.167 7.767q-0.3 0.167-0.621 0.25t-0.607 0.083q-0.895 0-1.583-0.636t-0.688-1.631z"></path>
</symbol>
<symbol id="plyr-logo-youtube" viewBox="0 0 32 32">
<path d="M14.133 21.7l7.333-4.767q0.5-0.321 0.5-0.927t-0.5-0.939l-7.333-4.767q-0.567-0.367-1.15-0.025t-0.583 1.025v9.4q0 0.683 0.583 1.025t1.15-0.025zM5.733 28.1q-1.904 0-3.219-1.315t-1.315-3.219v-15.133q0-1.904 1.315-3.219t3.219-1.315h20.533q1.904 0 3.219 1.315t1.315 3.219v15.133q0 1.904-1.315 3.219t-3.219 1.315h-20.533z"></path>
</symbol>
<symbol id="plyr-exit-fullscreen" viewBox="0 0 32 32">
<path d="M6.933 25.067h-2.233q-0.923 0-1.578-0.673t-0.655-1.596q0-0.969 0.65-1.617t1.617-0.648h4.467q0.92 0 1.593 0.673t0.673 1.593v4.5q0 0.923-0.648 1.578t-1.6 0.655-1.619-0.65-0.667-1.617v-2.2zM25.1 25.067v2.233q0 0.923-0.648 1.578t-1.6 0.655-1.619-0.65-0.667-1.617v-4.467q0-0.92 0.673-1.593t1.593-0.673h4.467q0.923 0 1.578 0.648t0.655 1.6-0.655 1.619-1.578 0.667h-2.2zM6.933 6.9v-2.2q0-0.923 0.673-1.578t1.596-0.655q0.969 0 1.617 0.655t0.648 1.578v4.467q0 0.92-0.673 1.593t-1.593 0.673h-4.5q-0.923 0-1.578-0.673t-0.655-1.596q0-0.969 0.65-1.617t1.617-0.648h2.2zM25.1 6.9h2.2q0.923 0 1.578 0.648t0.655 1.6-0.655 1.619-1.578 0.667h-4.467q-0.92 0-1.593-0.673t-0.673-1.593v-4.467q0-0.923 0.673-1.578t1.596-0.655q0.969 0 1.617 0.655t0.648 1.578v2.2z"></path>
</symbol>
<symbol id="plyr-captions-on" viewBox="0 0 32 32">
<path d="M19.167 20h1.9q0.367 0.033 0.717-0.050t0.75-0.35q-0.058 0.030-0.117 0.067t-0.117 0.067q0.767-0.5 0.967-1.079t0.2-1.055l-0.033 0.5q0-0.633-0.369-1.1t-0.931-0.467q-0.5 0-0.9 0.317t-0.467 0.817v-0.033h-1.233v-3.267h1.233v-0.033q0.067 0.5 0.467 0.8t0.9 0.3q0.561 0 0.931-0.451t0.369-1.049v0.267q0-0.93-0.706-1.565t-1.66-0.635h-1.9q-1 0-1.7 0.7t-0.7 1.7v3.2q0 1 0.7 1.7t1.7 0.7zM7.067 28.133q-1.913 0-3.223-1.31t-1.31-3.223v-15.2q0-1.913 1.31-3.223t3.223-1.31h17.867q1.913 0 3.223 1.31t1.31 3.223v8.433q0 0.7-0.55 1.1t-1.217 0.333q-1.633-0.1-3.15 0.45t-2.75 1.75q-1.167 1.2-1.733 2.75t-0.467 3.183q0.067 0.667-0.35 1.2t-1.083 0.533h-11.1zM24.933 28.133h-0.4q-0.92 0-1.593-0.673t-0.673-1.593 0.673-1.593 1.593-0.673h0.4v-0.4q0-0.92 0.673-1.593t1.593-0.673 1.593 0.673 0.673 1.593v0.4h0.4q0.92 0 1.593 0.673t0.673 1.593-0.673 1.593-1.593 0.673h-0.4v0.4q0 0.92-0.673 1.593t-1.593 0.673-1.593-0.673-0.673-1.593v-0.4zM10.933 20h1.9q0.968 0 1.684-0.635t0.716-1.565v0.267q0-0.584-0.403-1.059t-0.964-0.474q-0.5 0-0.883 0.317t-0.45 0.817v-0.033h-1.233v-3.267h1.233v-0.033q0.067 0.5 0.467 0.8t0.9 0.3q0.576 0 0.954-0.451t0.379-1.049v0.267q0-0.93-0.716-1.565t-1.684-0.635h-1.9q-1 0-1.683 0.7t-0.683 1.7v3.2q0 1 0.683 1.7t1.683 0.7z"></path>
</symbol>
<symbol id="plyr-pip" viewBox="0 0 32 32">
<path d="M5.733 28.1q-1.913 0-3.223-1.31t-1.31-3.223v-15.133q0-1.913 1.31-3.223t3.223-1.31h20.533q1.913 0 3.223 1.31t1.31 3.223v15.133q0 1.913-1.31 3.223t-3.223 1.31h-20.533zM16.433 17.833h6.3q0.967 0 1.617-0.65t0.65-1.617v-3.633q0-0.92-0.65-1.593t-1.617-0.673h-6.3q-0.967 0-1.617 0.673t-0.65 1.593v3.633q0 0.967 0.65 1.617t1.617 0.65z"></path>
</symbol>
<symbol id="plyr-fast-forward" viewBox="0 0 32 32">
<path d="M-0.133 22.333v-12.667q0-1 0.683-1.633t1.583-0.633q0.333 0 0.633 0.083t0.6 0.283l9.567 6.367q0.5 0.3 0.75 0.817t0.25 1.050-0.25 1.050-0.75 0.817l-9.567 6.367q-0.3 0.2-0.6 0.283t-0.633 0.083q-0.9 0-1.583-0.633t-0.683-1.633zM16.233 22.333v-12.667q0-1 0.683-1.633t1.583-0.633q0.333 0 0.65 0.083t0.617 0.283l9.533 6.367q0.533 0.3 0.767 0.817t0.233 1.050-0.233 1.050-0.767 0.817l-9.533 6.367q-0.3 0.2-0.617 0.283t-0.65 0.083q-0.9 0-1.583-0.633t-0.683-1.633z"></path>
</symbol>
<symbol id="plyr-restart" viewBox="0 0 32 32">
<path d="M16 31.167q-2.8 0-5.283-1.067t-4.317-2.9-2.9-4.3-1.067-5.267q0-0.933 0.65-1.6t1.617-0.667q0.933 0 1.6 0.667t0.667 1.6q0 3.767 2.633 6.383t6.4 2.617 6.4-2.633 2.633-6.4-2.65-6.383-6.417-2.617h-0.167l0.6 0.6q0.5 0.5 0.5 1.2t-0.467 1.2q-0.5 0.567-1.25 0.567t-1.283-0.533l-3.733-3.667q-0.667-0.7-0.667-1.633t0.667-1.633l3.667-3.667q0.533-0.533 1.267-0.517t1.267 0.55q0.5 0.533 0.5 1.25t-0.533 1.25l-0.5 0.5h0.133q2.8 0 5.283 1.067t4.333 2.9 2.917 4.3 1.067 5.267-1.067 5.283-2.9 4.317-4.317 2.9-5.283 1.067z"></path>
</symbol>
<symbol id="plyr-download" viewBox="0 0 32 32">
<path d="M16 20.067q-0.438 0-0.871-0.174t-0.762-0.492l-5.567-5.6q-0.667-0.636-0.671-1.571t0.671-1.582q0.667-0.681 1.6-0.681t1.6 0.7l1.733 1.733v-6.333q0-0.967 0.65-1.617t1.6-0.65 1.617 0.65 0.667 1.617v6.333l1.733-1.733q0.624-0.7 1.548-0.719t1.619 0.686q0.667 0.667 0.667 1.583t-0.667 1.617l-5.567 5.567q-0.321 0.318-0.746 0.492t-0.854 0.174zM8.333 28.2q-1.904 0-3.219-1.315t-1.315-3.219v-1.733q0-0.92 0.65-1.593t1.6-0.673 1.617 0.673 0.667 1.593v1.733h15.333v-1.733q0-0.92 0.673-1.593t1.593-0.673q0.967 0 1.617 0.673t0.65 1.593v1.733q0 1.904-1.315 3.219t-3.219 1.315h-15.333z"></path>
</symbol>
<symbol id="plyr-pause" viewBox="0 0 32 32">
<path d="M22.516 27.733q-1.883 0-3.199-1.31t-1.317-3.223v-14.433q0-1.866 1.311-3.2t3.223-1.334q1.866 0 3.199 1.334t1.333 3.2v14.433q0 1.912-1.334 3.223t-3.217 1.31zM9.466 27.733q-1.866 0-3.199-1.31t-1.333-3.223v-14.433q0-1.866 1.334-3.2t3.217-1.334 3.199 1.334 1.317 3.2v14.433q0 1.912-1.311 3.223t-3.223 1.31z"></path>
</symbol>
<symbol id="plyr-captions-off" viewBox="0 0 32 32">
<path d="M7.067 28.133q-1.904 0-3.219-1.315t-1.315-3.219v-15.2q0-1.904 1.315-3.219t3.219-1.315h17.867q1.904 0 3.219 1.315t1.315 3.219v15.2q0 1.904-1.315 3.219t-3.219 1.315h-17.867zM10.933 20h1.9q1 0 1.7-0.7t0.7-1.7v0.033q0-0.3-0.2-0.5t-0.5-0.2h-1.3q-0.3 0-0.5 0.2t-0.2 0.5h-1.233v-3.267h1.233q0 0.3 0.2 0.5t0.5 0.2h1.3q0.3 0 0.5-0.2t0.2-0.5v0.033q0-1-0.7-1.7t-1.7-0.7h-1.9q-1 0-1.683 0.7t-0.683 1.7v3.2q0 1 0.683 1.7t1.683 0.7zM21.067 12h-1.9q-1 0-1.7 0.7t-0.7 1.7v3.2q0 1 0.7 1.7t1.7 0.7h1.9q1 0 1.683-0.7t0.683-1.7v0.033q0-0.3-0.2-0.5t-0.5-0.2h-1.267q-0.3 0-0.5 0.2t-0.2 0.5h-1.233v-3.267h1.233q0 0.3 0.2 0.5t0.5 0.2h1.267q0.3 0 0.5-0.2t0.2-0.5v0.033q0-1-0.683-1.7t-1.683-0.7z"></path>
</symbol>
<symbol id="plyr-logo-vimeo" viewBox="0 0 37 32">
<path d="M37.070 7.401c-0.166 3.602-2.687 8.533-7.564 14.795-5.042 6.539-9.309 9.808-12.8 9.808-2.161 0-3.99-1.995-5.486-5.984l-2.992-10.972c-1.108-3.99-2.3-5.984-3.574-5.984-0.277 0-1.247 0.582-2.909 1.745l-1.745-2.244c2.287-2.008 4.045-3.582 5.792-5.169l-0.389 0.348c2.438-2.106 4.267-3.214 5.486-3.325 2.881-0.277 4.655 1.69 5.319 5.901 0.72 4.544 1.219 7.37 1.496 8.478 0.831 3.768 1.745 5.652 2.743 5.652 0.776 0 1.939-1.219 3.491-3.657s2.383-4.294 2.494-5.569c0.222-2.106-0.61-3.158-2.494-3.158-0.887 0-1.801 0.194-2.743 0.582 1.829-5.929 5.32-8.81 10.473-8.644 3.823 0.111 5.624 2.577 5.403 7.397l0-0z"></path>
</symbol>
</defs>
</svg>
